<?xml version="1.0" encoding="UTF-8" standalone="no"?>
<!-- Created with Inkscape (http://www.inkscape.org/) -->

<svg
   width="128"
   height="128"
   viewBox="0 0 33.866667 33.866667"
   version="1.1"
   id="svg5"
   xmlns="http://www.w3.org/2000/svg"
   xmlns:svg="http://www.w3.org/2000/svg">
  <defs
     id="defs2" />
  <g
     id="layer1">
    <path
       id="rect846"
       style="color:#000000;fill:#ffffff;stroke-width:3.77953;stroke-linecap:round;stroke-linejoin:round;-inkscape-stroke:none"
       d="M 4.5996094 0 A 4.6025832 4.6025832 0 0 0 0 4.5996094 L 0 109.40039 A 4.6025832 4.6025832 0 0 0 4.5996094 113.99805 L 27.203125 113.99805 L 27.203125 104.79297 L 9.2050781 104.79297 L 9.2050781 9.2050781 L 36.511719 9.2050781 A 9.40294 9.40294 0 0 1 36.599609 9.1972656 L 96.001953 9.1972656 L 96.001953 4.5996094 A 4.6025832 4.6025832 0 0 0 91.394531 0 L 4.5996094 0 z M 86.796875 28.007812 L 86.796875 104.79297 L 46.003906 104.79297 L 46.003906 113.99805 L 91.394531 113.99805 A 4.6025832 4.6025832 0 0 0 96.001953 109.40039 L 96.001953 28.007812 L 86.796875 28.007812 z "
       transform="scale(0.26458333)" />
    <path
       style="color:#000000;fill:#ffffff;stroke-linecap:round;stroke-linejoin:round;-inkscape-stroke:none"
       d="M 9.6835938,3.7050781 A 1.2177668,1.2177668 0 0 0 8.4667969,4.921875 v 27.726562 a 1.2177668,1.2177668 0 0 0 1.2167969,1.21875 H 32.648437 a 1.2177668,1.2177668 0 0 0 1.21875,-1.21875 V 4.921875 A 1.2177668,1.2177668 0 0 0 32.648437,3.7050781 Z M 10.902344,6.1386719 H 31.431641 V 31.431641 H 10.902344 Z"
       id="rect846-9" />
  </g>
</svg>
