<?xml version="1.0" encoding="UTF-8" standalone="no"?>
<!-- Created with Inkscape (http://www.inkscape.org/) -->

<svg
   width="128"
   height="128"
   viewBox="0 0 33.866666 33.866668"
   version="1.1"
   id="svg5"
   inkscape:version="1.1.1 (3bf5ae0d25, 2021-09-20)"
   sodipodi:docname="2n.svg"
   xmlns:inkscape="http://www.inkscape.org/namespaces/inkscape"
   xmlns:sodipodi="http://sodipodi.sourceforge.net/DTD/sodipodi-0.dtd"
   xmlns="http://www.w3.org/2000/svg"
   xmlns:svg="http://www.w3.org/2000/svg">
  <sodipodi:namedview
     id="namedview7"
     pagecolor="#575757"
     bordercolor="#666666"
     borderopacity="1.0"
     inkscape:pageshadow="2"
     inkscape:pageopacity="0"
     inkscape:pagecheckerboard="true"
     inkscape:document-units="mm"
     showgrid="false"
     inkscape:zoom="1.8529742"
     inkscape:cx="73.125681"
     inkscape:cy="76.363718"
     inkscape:window-width="1360"
     inkscape:window-height="705"
     inkscape:window-x="-8"
     inkscape:window-y="-8"
     inkscape:window-maximized="1"
     inkscape:current-layer="layer1"
     units="px" />
  <defs
     id="defs2" />
  <g
     inkscape:label="note"
     inkscape:groupmode="layer"
     id="layer1"
     style="display:inline">
    <g
       inkscape:groupmode="layer"
       id="layer7"
       inkscape:label="dot"
       style="display:none">
      <circle
         style="fill:#ffffff;fill-opacity:1;stroke-width:0;stroke-miterlimit:4;stroke-dasharray:none"
         id="path3055"
         cx="25.165947"
         cy="28.186106"
         r="1.6911919" />
    </g>
    <g
       inkscape:groupmode="layer"
       id="layer6"
       inkscape:label="head_full"
       style="display:none">
      <path
         id="path868-1"
         style="display:inline;fill:#ffffff;fill-opacity:1;stroke-width:0.37179;stroke-miterlimit:4;stroke-dasharray:none"
         d="m 120.15202,237.41709 c -26.067586,-1.4343 -48.602267,13.26045 -53.13981,34.65218 -5.093834,24.01826 14.14448,47.89459 42.97042,53.32982 28.82711,5.43589 56.32656,-9.62922 61.42098,-33.64846 5.09383,-24.01825 -14.14448,-47.89457 -42.97041,-53.32981 -2.73517,-0.51554 -5.50409,-0.85115 -8.28118,-1.00373 z"
         sodipodi:nodetypes="cccccc"
         transform="matrix(0.13028733,0,0,0.13028733,-2.9130162,-8.5437964)" />
    </g>
    <g
       inkscape:groupmode="layer"
       id="layer3"
       inkscape:label="head_empty"
       transform="matrix(0.13028733,0,0,0.13028733,-2.9130161,-8.5437965)"
       style="display:inline">
      <path
         id="path868"
         style="display:inline;fill:#ffffff;fill-opacity:1;stroke-width:0.37179;stroke-miterlimit:4;stroke-dasharray:none"
         d="m 120.15202,237.41709 a 53.146509,44.419162 7.6606424 0 0 -53.139807,34.65218 53.146509,44.419162 7.6606424 0 0 42.970417,53.32982 53.146509,44.419162 7.6606424 0 0 61.42098,-33.64846 53.146509,44.419162 7.6606424 0 0 -42.97041,-53.32981 53.146509,44.419162 7.6606424 0 0 -8.28118,-1.00373 z m 3.82499,15.85768 a 29.009212,37.609586 74.381609 0 1 30.02804,17.05259 29.009212,37.609586 74.381609 0 1 -24.22852,39.5486 29.009212,37.609586 74.381609 0 1 -46.460915,-14.22728 29.009212,37.609586 74.381609 0 1 24.223115,-39.5433 29.009212,37.609586 74.381609 0 1 16.43828,-2.83061 z" />
    </g>
    <g
       inkscape:groupmode="layer"
       id="layer2"
       inkscape:label="stem"
       style="display:inline"
       transform="matrix(0.13028733,0,0,0.13028733,-2.9130161,-8.5437965)">
      <rect
         style="display:inline;opacity:1;fill:#ffffff;fill-opacity:1;stroke-width:0.31733;stroke-miterlimit:4;stroke-dasharray:none"
         id="rect3822"
         width="12.930624"
         height="226.88148"
         x="183.29478"
         y="62.525387"
         transform="matrix(0.99980159,0.01991919,-0.08717303,0.99619319,-7.5154404e-7,6.7159256e-7)" />
    </g>
    <g
       inkscape:groupmode="layer"
       id="layer4"
       inkscape:label="flag_1"
       style="display:none">
      <g
         inkscape:groupmode="layer"
         id="g2584"
         inkscape:label="flag_2"
         style="display:inline">
        <g
           inkscape:groupmode="layer"
           id="g2404"
           inkscape:label="flag_3"
           style="display:inline">
          <g
             inkscape:groupmode="layer"
             id="g2860"
             inkscape:label="flag_4"
             style="display:inline">
            <path
               style="display:inline;fill:#ffffff;fill-opacity:1;stroke:#000000;stroke-width:0;stroke-linecap:butt;stroke-linejoin:miter;stroke-miterlimit:4;stroke-dasharray:none;stroke-opacity:1"
               d="m 20.49806,16.286351 0.372905,2.447966 c 0.608225,3.992754 1.67006,4.13488 3.795594,6.326866 2.125532,2.191984 0.101215,8.170123 0.101215,8.170123 0,0 0.75912,-5.928323 -1.568846,-7.422857 -2.327966,-1.494535 -3.44134,-3.387612 -3.64377,-4.981783 -0.202434,-1.594171 -0.766075,-4.574364 -0.766075,-4.574364 z"
               id="path2858"
               sodipodi:nodetypes="csscsscc" />
          </g>
          <path
             style="display:inline;fill:#ffffff;fill-opacity:1;stroke:#000000;stroke-width:0;stroke-linecap:butt;stroke-linejoin:miter;stroke-miterlimit:4;stroke-dasharray:none;stroke-opacity:1"
             d="m 20.901927,10.884632 0.372905,2.447966 c 0.608225,3.992754 1.67006,4.13488 3.795594,6.326866 2.125532,2.191984 0.101215,8.170123 0.101215,8.170123 0,0 0.75912,-5.928323 -1.568846,-7.422857 -2.327966,-1.494535 -3.44134,-3.387612 -3.64377,-4.981783 -0.202434,-1.594171 -0.766075,-4.574364 -0.766075,-4.574364 z"
             id="path2402"
             sodipodi:nodetypes="csscsscc" />
        </g>
        <path
           style="display:inline;fill:#ffffff;fill-opacity:1;stroke:#000000;stroke-width:0;stroke-linecap:butt;stroke-linejoin:miter;stroke-miterlimit:4;stroke-dasharray:none;stroke-opacity:1"
           d="m 21.457244,5.4829134 0.372905,2.4479664 c 0.608225,3.9927532 1.67006,4.1348792 3.795594,6.3268652 2.125532,2.191984 0.101215,8.170123 0.101215,8.170123 0,0 0.75912,-5.928323 -1.568846,-7.422857 -2.327966,-1.494535 -3.44134,-3.387612 -3.64377,-4.981783 -0.202434,-1.59417 -0.766075,-4.5743629 -0.766075,-4.5743629 z"
           id="path2582"
           sodipodi:nodetypes="csscsscc" />
      </g>
      <path
         style="display:inline;fill:#ffffff;fill-opacity:1;stroke:#000000;stroke-width:0;stroke-linecap:butt;stroke-linejoin:miter;stroke-miterlimit:4;stroke-dasharray:none;stroke-opacity:1"
         d="m 190.92489,66.199783 2.86217,18.788983 c 4.66834,30.645754 12.81829,31.736624 29.13249,48.560864 16.31419,16.82423 0.77686,62.7085 0.77686,62.7085 0,0 5.82651,-45.50191 -12.04143,-56.97297 -17.86794,-11.47107 -26.41347,-26.00109 -27.96719,-38.2369 -1.55375,-12.235805 -5.87989,-35.109809 -5.87989,-35.109809 z"
         id="path4302"
         sodipodi:nodetypes="csscsscc"
         transform="matrix(0.13028733,0,0,0.13028733,-2.9130162,-8.5437964)" />
    </g>
    <g
       id="g6364"
       transform="matrix(0.13028733,0,0,0.13028733,-2.9130161,-8.5437965)"
       style="display:inline"
       inkscape:label="#g6364" />
  </g>
</svg>
