<?xml version="1.0" encoding="UTF-8" standalone="no"?>
<!-- Created with Inkscape (http://www.inkscape.org/) -->

<svg
   width="128"
   height="128"
   viewBox="0 0 33.866666 33.866668"
   version="1.1"
   id="svg2802"
   xmlns="http://www.w3.org/2000/svg"
   xmlns:svg="http://www.w3.org/2000/svg">
  <defs
     id="defs2799" />
  <g
     id="layer1">
    <path
       id="rect2891"
       style="color:#000000;fill:#ffffff;stroke-width:3.77953;stroke-linecap:round;stroke-linejoin:round;-inkscape-stroke:none"
       d="M 8.7246094 0 A 8.7296916 8.7296916 0 0 0 0 8.7246094 L 0 34.806641 L 17.458984 34.806641 L 17.458984 17.458984 L 34.806641 17.458984 L 34.806641 0 L 8.7246094 0 z M 93.193359 0 L 93.193359 17.458984 L 110.54297 17.458984 L 110.54297 34.806641 L 128.00195 34.806641 L 128.00195 8.7246094 A 8.7296916 8.7296916 0 0 0 119.26953 0 L 93.193359 0 z M 0 93.193359 L 0 119.26953 A 8.7296916 8.7296916 0 0 0 8.7246094 128.00195 L 34.806641 128.00195 L 34.806641 110.54297 L 17.458984 110.54297 L 17.458984 93.193359 L 0 93.193359 z M 110.54297 93.193359 L 110.54297 110.54297 L 93.193359 110.54297 L 93.193359 128.00195 L 119.26953 128.00195 A 8.7296916 8.7296916 0 0 0 128.00195 119.26953 L 128.00195 93.193359 L 110.54297 93.193359 z "
       transform="scale(0.26458333)" />
  </g>
</svg>
